# xmcd
#
# Track frame offsets: 
#        150
#        13941
#        29665
#        46232
#        60637
#        72818
#        87267
#        102253
#        116093
#        131098
#        147400
#        162876
#        179380
#        193658
#        210873
#        229327
#
# Disc length: 3256 seconds
#
# Revision: 0
# Processed by: cddbd v1.5.2PL0 Copyright (c) Steve Scherf et al.
# Submitted via: ExactAudioCopy v0.95b2
#
DISCID=e50cb610
DTITLE=Grupo Minuano - Vai Mexer com Você
DYEAR=2006
DGENRE=Gauchesca
TTITLE0=O Minuano Vai Mexer Com Você
TTITLE1=Bota De A Pá
TTITLE2=No Calor Dos Teus Abraços
TTITLE3=Balanço Fandangueiro (Moda Fandangueira)
TTITLE4=Docinho
TTITLE5=Fuzarqueiro
TTITLE6=Nóis Enverga Mais Não Quebra
TTITLE7=Loco Pra Saracotear (Vanera Nera)
TTITLE8=Gaiteiros De Bailão
TTITLE9=O Remelexo Dela (De Cair o Queixo)
TTITLE10=Trancão De Livramento
TTITLE11=Menina Fandangueira
TTITLE12=Você É Tudo Que Pedi Pra Deus (Magia)
TTITLE13=Vem Me Ajudar
TTITLE14=Volta Pra Mim
TTITLE15=Agarradinho
EXTD=
EXTT0=
EXTT1=
EXTT2=
EXTT3=
EXTT4=
EXTT5=
EXTT6=
EXTT7=
EXTT8=
EXTT9=
EXTT10=
EXTT11=
EXTT12=
EXTT13=
EXTT14=
EXTT15=
PLAYORDER=
